<?xml version="1.0" encoding="UTF-8"?>
<svg id="_图层_1" data-name="图层 1" xmlns="http://www.w3.org/2000/svg" viewBox="0 0 964.37 412.12">
  <defs>
    <style>
      .cls-1 {
        fill: #e8362d;
      }

      .cls-2 {
        fill: #fff;
      }

      .cls-3 {
        fill: #f4f4f4;
        font-family: SourceHanSansCN-Light-GBpc-EUC-H, 'Source Han Sans CN';
        font-size: 100px;
        font-weight: 300;
        letter-spacing: .01em;
      }

      .cls-4 {
        fill: #1b1b1b;
      }
    </style>
  </defs>
  <text class="cls-3" transform="translate(0 -102.91) scale(1 1.02)"><tspan x="0" y="0">横版白底</tspan></text>
  <g>
    <circle class="cls-4" cx="205.23" cy="206.09" r="41.81"/>
    <circle class="cls-2" cx="213.84" cy="199.58" r="9.87"/>
    <path class="cls-4" d="M273.38,171.14h-6.08c0-14.85-12.04-26.89-26.89-26.89v-6.08c14.85,0,26.89-12.04,26.89-26.89h6.08c0,14.85,12.04,26.89,26.89,26.89v6.08c-14.85,0-26.89,12.04-26.89,26.89Z"/>
    <path class="cls-1" d="M299.9,171.03v70.59c0,32.66-26.47,59.14-59.14,59.14h-71.06c-32.66,0-59.14-26.48-59.14-59.14v-71.06c0-32.66,26.47-59.13,59.14-59.13h70.69v32.76h-71.43c-14.17,0-25.65,11.48-25.65,25.64v72.53c0,14.16,11.48,25.64,25.65,25.64h72.52c14.16,0,25.65-11.48,25.65-25.64v-71.32h32.76Z"/>
  </g>
  <g>
    <path class="cls-4" d="M409.54,170.3v13.2h-37.7v15.3h34.6v12.2h-34.6v17.5h38.5v13.2h-54.21v-71.41h53.41Z"/>
    <path class="cls-4" d="M432.94,224.1c.87,1.67,2.02,3.02,3.45,4.05,1.43,1.03,3.12,1.8,5.05,2.3,1.93.5,3.93.75,6,.75,1.4,0,2.9-.12,4.5-.35,1.6-.23,3.1-.68,4.5-1.35,1.4-.67,2.57-1.58,3.5-2.75.93-1.17,1.4-2.65,1.4-4.45,0-1.93-.62-3.5-1.85-4.7-1.23-1.2-2.85-2.2-4.85-3-2-.8-4.27-1.5-6.8-2.1-2.54-.6-5.1-1.27-7.7-2-2.67-.67-5.27-1.48-7.8-2.45-2.53-.97-4.8-2.22-6.8-3.75-2-1.53-3.62-3.45-4.85-5.75-1.23-2.3-1.85-5.08-1.85-8.35,0-3.67.78-6.85,2.35-9.55,1.57-2.7,3.62-4.95,6.15-6.75,2.53-1.8,5.4-3.13,8.6-4,3.2-.87,6.4-1.3,9.6-1.3,3.73,0,7.32.42,10.75,1.25,3.43.83,6.48,2.19,9.15,4.05,2.67,1.87,4.78,4.25,6.35,7.15,1.57,2.9,2.35,6.42,2.35,10.55h-15.2c-.13-2.13-.58-3.9-1.35-5.3-.77-1.4-1.79-2.5-3.05-3.3-1.27-.8-2.72-1.37-4.35-1.7-1.63-.33-3.42-.5-5.35-.5-1.27,0-2.53.13-3.8.4-1.27.27-2.42.73-3.45,1.4-1.04.67-1.88,1.5-2.55,2.5-.67,1-1,2.27-1,3.8,0,1.4.27,2.53.8,3.4.53.87,1.58,1.67,3.15,2.4,1.57.73,3.73,1.47,6.5,2.2,2.77.73,6.38,1.67,10.85,2.8,1.33.27,3.18.75,5.55,1.45,2.37.7,4.72,1.82,7.05,3.35,2.33,1.53,4.35,3.58,6.05,6.15,1.7,2.57,2.55,5.85,2.55,9.85,0,3.27-.63,6.3-1.9,9.1-1.27,2.8-3.15,5.22-5.65,7.25-2.5,2.03-5.6,3.62-9.3,4.75s-7.99,1.7-12.85,1.7c-3.94,0-7.75-.48-11.45-1.45-3.7-.97-6.97-2.48-9.8-4.55-2.83-2.07-5.08-4.7-6.75-7.9-1.67-3.2-2.47-7-2.4-11.4h15.2c0,2.4.43,4.43,1.3,6.1Z"/>
    <path class="cls-4" d="M518.04,170.3c4.47,0,8.27.65,11.4,1.95,3.13,1.3,5.68,3.02,7.65,5.15,1.97,2.13,3.4,4.57,4.3,7.3.9,2.73,1.35,5.57,1.35,8.5s-.45,5.69-1.35,8.45c-.9,2.77-2.33,5.22-4.3,7.35-1.97,2.13-4.52,3.85-7.65,5.15-3.13,1.3-6.93,1.95-11.4,1.95h-16.5v25.6h-15.7v-71.41h32.2ZM513.74,203.9c1.8,0,3.53-.13,5.2-.4,1.67-.27,3.13-.78,4.4-1.55,1.27-.77,2.28-1.85,3.05-3.25.77-1.4,1.15-3.23,1.15-5.5s-.38-4.1-1.15-5.5c-.77-1.4-1.79-2.48-3.05-3.25-1.27-.77-2.73-1.28-4.4-1.55-1.67-.27-3.4-.4-5.2-.4h-12.2v21.4h12.2Z"/>
    <path class="cls-4" d="M549.81,213.99h24.74v9.18h-24.74v-9.18Z"/>
    <path class="cls-1" d="M600.05,241.71l-21.34-61.91h8.67l17.34,53.67h.17l17.51-53.67h8.42l-21.59,61.91h-9.18Z"/>
    <path class="cls-1" d="M646.81,179.8v61.91h-8.08v-61.91h8.08Z"/>
    <path class="cls-1" d="M691.9,188.25c-2.69-1.99-6.14-2.99-10.33-2.99-1.7,0-3.37.17-5.02.52-1.64.35-3.1.93-4.38,1.73-1.27.81-2.29,1.89-3.06,3.25-.77,1.36-1.15,3.05-1.15,5.07,0,1.91.55,3.45,1.66,4.64,1.11,1.19,2.58,2.15,4.42,2.9,1.84.75,3.92,1.37,6.25,1.86,2.32.49,4.69,1.03,7.1,1.6,2.41.58,4.77,1.26,7.1,2.04,2.32.78,4.41,1.84,6.25,3.17,1.84,1.33,3.32,3.01,4.42,5.03,1.11,2.02,1.66,4.57,1.66,7.63,0,3.29-.72,6.11-2.17,8.45-1.45,2.34-3.3,4.25-5.57,5.72s-4.8,2.54-7.61,3.21c-2.8.66-5.6,1-8.37,1-3.4,0-6.62-.43-9.65-1.3-3.03-.87-5.7-2.18-7.99-3.95-2.3-1.76-4.11-4.02-5.44-6.76-1.33-2.75-2-6-2-9.75h7.65c0,2.6.5,4.84,1.49,6.72.99,1.88,2.29,3.43,3.91,4.64s3.5,2.11,5.65,2.69c2.15.58,4.36.87,6.63.87,1.81,0,3.64-.17,5.48-.52,1.84-.35,3.5-.94,4.97-1.78,1.47-.84,2.66-1.98,3.57-3.43.91-1.44,1.36-3.29,1.36-5.55,0-2.14-.55-3.87-1.66-5.2-1.11-1.33-2.58-2.41-4.42-3.25-1.84-.84-3.92-1.52-6.25-2.04-2.32-.52-4.69-1.05-7.1-1.6-2.41-.55-4.78-1.18-7.1-1.91-2.32-.72-4.41-1.68-6.25-2.86-1.84-1.18-3.32-2.72-4.42-4.6-1.1-1.88-1.66-4.23-1.66-7.07,0-3.12.62-5.82,1.87-8.11,1.25-2.28,2.9-4.16,4.97-5.64,2.07-1.47,4.42-2.57,7.06-3.29,2.64-.72,5.34-1.08,8.12-1.08,3.12,0,6.01.38,8.67,1.13,2.66.75,5,1.94,7.01,3.56,2.01,1.62,3.6,3.66,4.76,6.11,1.16,2.46,1.8,5.39,1.91,8.8h-7.65c-.45-4.45-2.03-7.67-4.72-9.67Z"/>
    <path class="cls-1" d="M726.12,179.8v61.91h-8.08v-61.91h8.08Z"/>
    <path class="cls-1" d="M739.25,198.57c1.22-3.9,3.05-7.35,5.48-10.36,2.44-3.01,5.47-5.4,9.1-7.2,3.63-1.79,7.85-2.69,12.67-2.69s9.04.9,12.67,2.69c3.63,1.79,6.66,4.19,9.1,7.2,2.44,3.01,4.26,6.46,5.48,10.36,1.22,3.9,1.83,7.96,1.83,12.18s-.61,8.28-1.83,12.18c-1.22,3.9-3.05,7.36-5.48,10.36-2.44,3.01-5.47,5.39-9.1,7.15-3.63,1.76-7.85,2.64-12.67,2.64s-9.04-.88-12.67-2.64c-3.63-1.76-6.66-4.15-9.1-7.15-2.44-3-4.26-6.46-5.48-10.36s-1.83-7.96-1.83-12.18.61-8.28,1.83-12.18ZM746.69,219.99c.79,3.04,2.04,5.77,3.74,8.19,1.7,2.43,3.88,4.38,6.55,5.85,2.66,1.47,5.84,2.21,9.52,2.21s6.86-.74,9.52-2.21c2.66-1.47,4.85-3.42,6.55-5.85,1.7-2.43,2.95-5.16,3.74-8.19.79-3.03,1.19-6.11,1.19-9.23s-.4-6.2-1.19-9.23c-.79-3.03-2.04-5.77-3.74-8.19-1.7-2.43-3.88-4.38-6.55-5.85-2.66-1.47-5.84-2.21-9.52-2.21s-6.86.74-9.52,2.21c-2.66,1.47-4.85,3.42-6.55,5.85-1.7,2.43-2.95,5.16-3.74,8.19-.79,3.03-1.19,6.11-1.19,9.23s.4,6.2,1.19,9.23Z"/>
    <path class="cls-1" d="M815.03,179.8l31.96,50.2h.17v-50.2h7.65v61.91h-8.84l-31.71-49.68h-.17v49.68h-7.65v-61.91h8.59Z"/>
  </g>
</svg>
